<svg xmlns="http://www.w3.org/2000/svg" viewBox="0 0 430.08 527.44"><defs><style>.cls-1{fill:#231f20;}.cls-2{fill:#fff;stroke:#000;}.cls-2,.cls-3{stroke-miterlimit:10;stroke-width:5px;}.cls-3{fill:none;stroke:#fff;}</style></defs><g id="Layer_2" data-name="Layer 2"><path class="cls-1" d="M505.55,734.57s191.28-210,193.64-247.76h-24.7s-39.06,108-168.94,114.24c0,0-106.54,9.74-168.4-114.24H310S378,611.57,505.55,734.57Z" transform="translate(-292.92 -207.13)"/><path class="cls-1" d="M301.28,372.28h26.55s25.4-137.67,176.54-143.22c0,0,132.24-.83,168.84,119.61l26-1.13s-36.6-138.63-194.82-140.19C504.37,207.35,352.05,194,301.28,372.28Z" transform="translate(-292.92 -207.13)"/><path class="cls-1" d="M707.68,462c34.47-53.14,0-89.74,0-89.74s-47.45-3.54-51-3.54-60.24-44.87-60.24-44.87h-124L354.41,384.09,310,393.47c-38.48,41.26,0,69.6,0,69.6h44.39a42.46,42.46,0,0,1,19.74-41.62,41.79,41.79,0,0,1,41.66-.76c14.81,8.2,23.32,24.95,21.46,42.38H574.73s-6-45.33,41.22-48.87c0,0,44.87-3.55,42.69,48.87Z" transform="translate(-292.92 -207.13)"/><circle class="cls-1" cx="323.62" cy="246.63" r="28.34"/><circle class="cls-1" cx="102.82" cy="246.63" r="28.34"/><path class="cls-2" d="M464.79,355.26l-30.09,52,30.09,45.22h91.69s8.15-52.78,68.32-54.47V374.93h-82l-25-19.67Z" transform="translate(-292.92 -207.13)"/><path class="cls-3" d="M395.74,453.75l56-98.49s4.81-15.45-34.16,9.35" transform="translate(-292.92 -207.13)"/><line class="cls-3" x1="323.62" y1="246.63" x2="275.48" y2="218.29"/><line class="cls-2" x1="149.76" y1="186.34" x2="215.04" y2="186.34"/><line class="cls-2" x1="207.32" y1="207.33" x2="146.6" y2="207.33"/></g></svg>